<svg width="35" height="35" viewBox="0 0 24 24" fill="none" xmlns="http://www.w3.org/2000/svg">
  <g clip-path="url(#clip0_62951_3)">
    <path d="M20 20C20 21.1046 19.1046 22 18 22C16.8954 22 16 21.1046 16 20C16 18.8954 16.8954 18 18 18C19.1046 18 20 18.8954 20 20ZM8 18C6.89543 18 6 18.8954 6 20C6 21.1046 6.89543 22 8 22C9.10457 22 10 21.1046 10 20C10 18.8954 9.10457 18 8 18ZM21.5 3.99999H5.72L5.16 2.99999C4.80132 2.37872 4.13737 1.99714 3.42 1.99999H2.5C2.22386 1.99999 2 2.22384 2 2.49999V3.49999C2 3.77613 2.22386 3.99999 2.5 3.99999H3.42L7.7 11.49C7.77797 11.6155 7.86843 11.7327 7.97 11.84L6.11 15.54C5.99438 15.7625 5.99438 16.0274 6.11 16.25L6.33 16.63C6.4704 16.865 6.72633 17.0063 7 17H19.5C19.7761 17 20 16.7761 20 16.5V15.5C20 15.2238 19.7761 15 19.5 15H8.62L9.62 12.91C9.82904 12.9651 10.0439 12.9953 10.26 13H16.49C17.5357 12.979 18.4915 12.404 19 11.49L21.35 7.35999C21.7687 6.64343 21.9928 5.82986 22 4.99999V4.49999C22 4.22384 21.7761 3.99999 21.5 3.99999Z" fill="#7D7A7A"/>
  </g>
  <defs>
    <clipPath id="clip0_62951_3">
      <rect width="24" height="24" fill="white"/>
    </clipPath>
  </defs>
</svg>
